<?xml version="1.0" standalone="no"?>
<!DOCTYPE svg PUBLIC "-//W3C//DTD SVG 20010904//EN"
 "http://www.w3.org/TR/2001/REC-SVG-20010904/DTD/svg10.dtd">
<svg version="1.0" xmlns="http://www.w3.org/2000/svg"
 width="900.000000pt" height="819.000000pt" viewBox="0 0 900.000000 819.000000"
 preserveAspectRatio="xMidYMid meet">
<metadata>
Created by potrace 1.10, written by Peter Selinger 2001-2011
</metadata>
<g transform="translate(0.000000,819.000000) scale(0.100000,-0.100000)"
fill="#fb923c" stroke="none">
<path d="M0 4095 l0 -4095 4500 0 4500 0 0 4095 0 4095 -4500 0 -4500 0 0
-4095z m3937 2803 c48 -29 108 -72 132 -95 50 -49 54 -50 79 -25 97 96 211
141 355 142 109 0 139 -10 234 -81 58 -44 95 -49 146 -22 25 13 58 17 147 18
113 0 116 -1 180 -35 91 -50 159 -120 203 -211 44 -90 46 -120 11 -148 -52
-41 -91 -19 -96 54 -3 48 -4 50 -41 58 -28 7 -41 17 -48 35 -14 36 -75 89
-126 108 -67 26 -194 15 -257 -21 -47 -26 -50 -27 -77 -11 -15 9 -35 16 -44
16 -10 0 -46 20 -82 45 -59 42 -69 45 -126 45 -59 0 -169 -29 -191 -51 -6 -5
-17 -9 -26 -9 -20 0 -120 -87 -120 -105 0 -7 -12 -20 -26 -29 -24 -16 -27 -16
-53 1 -16 10 -52 47 -81 83 -77 94 -146 157 -187 171 -50 16 -204 5 -246 -18
-73 -40 -124 -102 -108 -131 8 -15 4 -26 -20 -55 -38 -46 -75 -49 -104 -9 -27
37 -27 144 0 187 27 44 57 76 80 86 11 5 27 13 35 18 44 26 123 39 242 40
l128 1 87 -52z m-1217 -141 c19 -8 62 -18 95 -22 56 -6 89 -18 140 -49 89 -53
150 -100 222 -170 90 -88 100 -113 61 -147 -42 -34 -56 -28 -133 62 -70 81
-243 185 -345 208 -25 6 -75 17 -112 26 -37 8 -87 15 -111 15 -62 0 -151 -33
-213 -80 -47 -35 -129 -131 -147 -170 -4 -8 -18 -33 -32 -55 -20 -33 -24 -53
-25 -117 0 -84 10 -120 67 -233 56 -111 100 -173 138 -197 19 -13 38 -33 41
-45 8 -31 -12 -63 -42 -63 -54 0 -147 -73 -178 -140 -7 -16 -15 -30 -57 -95
-64 -103 -90 -202 -91 -352 -1 -128 10 -191 48 -281 21 -49 18 -97 -9 -128
-23 -27 -24 -27 -53 -10 -60 36 -98 126 -148 352 -32 144 -9 350 50 451 38 66
182 222 243 264 28 19 51 39 51 46 0 7 -12 31 -27 55 -47 73 -52 81 -84 148
-32 65 -59 175 -59 239 0 47 19 108 52 164 15 26 28 52 28 57 0 19 120 168
166 205 45 38 100 67 149 79 42 11 280 -2 315 -17z m3360 -210 c19 -8 55 -23
80 -32 216 -81 314 -162 396 -325 53 -106 59 -308 11 -390 -14 -25 -36 -65
-48 -90 -32 -65 -115 -194 -139 -215 -32 -29 -25 -53 18 -64 20 -6 46 -11 56
-11 29 0 137 -64 172 -102 41 -44 75 -94 97 -141 14 -32 17 -67 17 -191 -1
-133 -3 -154 -19 -173 -19 -23 -71 -32 -71 -13 0 6 -19 20 -43 31 -59 29 -84
83 -51 110 14 12 16 29 10 123 -11 164 -42 212 -162 247 -52 15 -85 19 -134
14 -62 -5 -66 -4 -97 25 -18 17 -33 37 -33 44 0 17 40 53 65 58 10 1 33 22 50
45 120 163 161 234 228 386 36 82 12 221 -57 329 -37 59 -94 107 -156 134 -8
3 -28 12 -45 19 -139 61 -363 83 -516 51 -72 -15 -94 -25 -157 -74 -45 -36
-162 -182 -162 -204 -1 -28 -48 -93 -73 -102 -22 -8 -31 -6 -52 14 -34 32 -31
56 15 120 22 30 60 85 85 121 94 139 240 247 364 270 74 13 310 4 351 -14z
m-2346 -100 c31 -33 63 -86 106 -177 11 -25 33 -67 47 -94 23 -43 24 -52 14
-87 -16 -52 -42 -65 -86 -45 -49 24 -67 55 -165 289 -36 85 -33 118 12 137 35
14 38 12 72 -23z m587 -14 c59 -45 73 -80 89 -215 13 -115 5 -198 -22 -233
-59 -75 -123 22 -147 220 -6 55 -16 126 -22 158 -8 49 -7 63 6 83 21 33 40 30
96 -13z m731 -94 c21 -20 38 -45 38 -56 0 -26 -101 -146 -170 -201 -30 -24
-75 -61 -100 -83 -48 -41 -79 -48 -104 -23 -27 26 -18 52 40 127 31 40 60 81
65 92 18 42 116 170 139 182 29 14 45 8 92 -38z m-2284 -79 c25 -23 26 -29 12
-64 -7 -20 -19 -27 -49 -32 -27 -4 -57 -21 -91 -50 -29 -24 -58 -44 -66 -44
-18 0 -54 36 -54 54 0 24 45 80 85 107 77 51 129 60 163 29z m3208 -222 c62
-57 104 -131 104 -185 0 -37 -3 -43 -24 -49 -41 -10 -63 4 -86 57 -11 28 -41
70 -66 93 -47 46 -57 82 -28 110 25 26 52 19 100 -26z m-3994 -125 c10 -9 18
-24 18 -33 0 -27 -44 -61 -76 -59 -37 3 -196 -65 -252 -106 -44 -34 -122 -125
-122 -143 0 -6 -6 -23 -14 -39 -64 -128 -90 -238 -90 -388 -1 -89 -4 -104 -23
-129 -13 -16 -23 -37 -23 -47 0 -23 -56 -78 -107 -104 -80 -42 -131 -88 -165
-149 l-33 -61 2 -377 c2 -347 1 -383 -17 -454 -19 -75 -31 -98 -59 -120 -11
-8 -12 -25 -7 -70 6 -50 13 -65 45 -99 37 -39 50 -60 84 -135 35 -80 77 -246
77 -309 0 -34 4 -40 28 -49 36 -12 92 -60 92 -78 0 -7 13 -20 29 -28 30 -16
61 -69 61 -106 0 -11 -7 -34 -16 -51 -8 -16 -12 -38 -9 -49 7 -21 54 -40 100
-40 47 0 120 -35 163 -79 40 -40 58 -70 120 -197 41 -84 70 -114 108 -114 47
0 59 -64 16 -86 -13 -6 -29 -17 -35 -23 -6 -6 -19 -11 -28 -11 -24 0 -107 89
-143 154 -41 72 -148 209 -185 235 -16 12 -51 24 -78 27 -55 8 -116 35 -135
62 -7 10 -27 24 -45 31 -18 7 -34 20 -35 29 -5 22 20 62 38 62 7 0 18 9 24 21
18 32 -5 52 -51 44 -58 -10 -75 0 -88 50 -6 25 -25 70 -42 101 -48 89 -60 130
-83 279 -20 135 -22 140 -46 143 -49 7 -60 28 -60 113 l0 78 -44 36 c-58 47
-74 86 -52 120 13 20 25 25 56 25 43 0 79 26 81 58 5 76 -4 148 -22 165 -25
24 -24 34 13 114 30 66 31 72 28 183 -7 208 -2 327 13 357 8 15 22 64 32 108
10 44 27 99 37 122 23 51 82 105 144 135 28 13 54 34 66 54 10 17 28 34 40 37
17 5 19 11 14 39 -4 18 -10 70 -13 115 l-5 81 52 104 c28 56 77 137 107 178
57 76 257 283 284 292 8 3 59 4 114 1 73 -3 104 -8 117 -20z m4816 -175 c58
-28 196 -130 235 -175 38 -43 58 -75 104 -163 18 -36 42 -78 53 -95 11 -16 23
-37 26 -45 3 -8 12 -28 19 -45 40 -94 50 -150 50 -292 0 -100 -4 -146 -12
-154 -22 -22 -15 -49 26 -97 34 -41 73 -106 116 -192 48 -96 63 -164 72 -325
5 -95 3 -119 -15 -175 -27 -84 -45 -130 -60 -157 -7 -12 -12 -27 -12 -34 0
-17 -49 -79 -62 -79 -21 0 -58 43 -58 67 0 19 -5 23 -29 23 -16 0 -36 3 -45 6
-24 9 -20 60 7 97 67 91 72 110 72 277 -1 85 -7 193 -15 240 l-13 85 -71 75
c-126 132 -144 175 -86 208 36 21 38 26 46 113 12 127 -28 289 -101 407 -75
122 -133 190 -215 253 -56 43 -92 61 -116 59 -59 -7 -80 21 -63 84 19 68 58
77 147 34z m-2927 -314 c22 -23 24 -34 24 -117 -1 -80 -4 -96 -24 -124 -13
-17 -41 -39 -63 -49 -36 -16 -43 -16 -67 -3 -43 24 -60 69 -49 136 23 148 113
227 179 157z m933 -57 c28 -21 42 -140 25 -217 -23 -105 -98 -143 -160 -81
-25 26 -29 37 -29 88 0 53 21 136 44 171 11 18 67 52 87 52 8 0 23 -6 33 -13z
m3430 -32 c93 -40 176 -217 176 -373 0 -70 -23 -148 -52 -179 -23 -25 -57 -30
-76 -11 -15 15 -16 74 -2 83 7 4 7 12 0 25 -5 10 -10 61 -10 112 0 69 -5 103
-19 133 -20 42 -74 99 -113 119 -49 26 -8 127 45 110 11 -3 34 -12 51 -19z
m-464 -53 c162 -84 219 -159 300 -394 29 -83 26 -137 -11 -235 -13 -36 -53
-29 -98 15 -37 36 -39 43 -46 118 -11 133 -48 243 -98 294 -35 36 -97 70 -127
70 -26 0 -49 45 -32 62 7 7 12 19 12 27 0 18 39 61 55 61 6 0 26 -8 45 -18z
m-3469 -88 c59 -30 74 -53 74 -117 0 -53 -3 -61 -30 -80 -16 -12 -43 -24 -59
-27 -31 -5 -31 -6 -34 -75 -2 -38 -7 -74 -13 -79 -23 -24 3 -103 44 -131 27
-19 89 -19 142 0 22 8 46 15 53 15 27 0 72 41 72 64 0 61 82 74 95 15 18 -83
-27 -140 -144 -180 -89 -30 -223 -33 -266 -5 -37 23 -59 45 -74 74 -12 23 -45
30 -56 12 -3 -6 -48 -10 -100 -10 -107 0 -149 17 -185 74 -27 45 -28 170 -2
202 28 33 59 46 82 34 37 -20 41 -42 14 -88 -17 -29 -23 -50 -18 -64 18 -57
107 -82 171 -50 55 28 70 50 77 112 4 30 10 65 12 77 5 16 -1 25 -23 37 -16 8
-37 30 -48 49 -16 31 -17 38 -4 68 7 19 27 46 43 62 26 23 39 27 89 27 33 0
71 -7 88 -16z m2149 -419 c93 -21 184 -71 239 -131 41 -44 50 -63 66 -129 18
-76 18 -80 0 -134 -31 -92 -95 -168 -235 -274 -81 -61 -105 -87 -160 -169
-121 -181 -135 -198 -163 -198 -36 1 -61 27 -61 64 0 26 8 40 38 66 21 19 63
72 94 119 37 56 109 137 205 233 l147 147 0 51 c0 33 -4 50 -12 50 -15 0 -78
-52 -78 -63 0 -23 -46 -67 -70 -67 -61 0 -66 50 -11 124 45 60 79 86 116 86
34 0 32 17 -7 57 -33 34 -58 43 -58 20 0 -8 -11 -24 -25 -37 -13 -13 -43 -54
-65 -91 -42 -71 -66 -87 -100 -69 -27 14 -25 47 5 101 13 24 29 53 34 64 5 11
18 29 30 39 11 11 21 23 21 28 0 4 -34 8 -75 8 -73 0 -110 -10 -202 -52 -41
-19 -163 -131 -163 -150 0 -5 -17 -32 -39 -61 -21 -29 -42 -65 -45 -82 -9 -38
-43 -75 -69 -75 -27 0 -57 28 -57 52 0 29 65 148 105 192 19 22 35 43 35 48 0
17 115 126 155 148 22 11 47 25 55 29 38 21 93 41 113 41 12 0 42 7 67 14 58
19 91 19 170 1z m-4236 -190 c81 -25 219 -96 263 -137 l43 -38 57 38 c70 46
109 61 188 74 144 23 270 -18 375 -122 61 -59 112 -153 125 -227 5 -33 11 -43
25 -43 10 0 22 5 25 10 17 28 177 70 260 70 91 -1 200 -43 284 -109 21 -17 50
-31 64 -31 17 0 33 -10 47 -31 16 -21 27 -28 39 -23 104 43 150 54 247 54 98
0 103 -1 145 -32 24 -17 71 -56 103 -85 32 -30 70 -59 83 -64 21 -8 23 -13 17
-46 -11 -62 -21 -73 -62 -73 -33 0 -45 8 -118 85 -45 46 -94 89 -110 95 -40
16 -200 2 -245 -21 -19 -9 -41 -25 -48 -33 -8 -9 -26 -16 -41 -16 -26 0 -37 8
-125 89 -22 21 -60 52 -84 69 -44 32 -45 32 -165 32 -94 0 -134 -4 -176 -19
-51 -18 -55 -22 -61 -56 -7 -43 -13 -49 -60 -69 -31 -13 -39 -13 -64 0 -28 14
-29 13 -80 -38 -51 -52 -56 -54 -170 -83 -130 -32 -184 -34 -296 -11 -89 18
-121 31 -175 70 -106 77 -146 212 -112 377 l12 58 -51 58 c-59 68 -119 94
-223 94 -36 0 -70 3 -76 7 -35 23 -25 105 15 127 34 18 64 18 125 0z m2970
-541 c29 -10 70 -37 106 -70 32 -30 65 -54 74 -54 10 0 38 12 64 26 69 39 140
54 260 56 105 1 158 -8 252 -45 106 -41 140 -68 140 -109 0 -42 -37 -62 -107
-56 -48 4 -59 9 -77 34 -37 51 -53 62 -104 69 -98 13 -192 -19 -192 -65 0 -27
-30 -40 -95 -40 -41 0 -63 -6 -84 -20 -23 -18 -32 -19 -56 -10 -16 6 -32 14
-35 18 -3 4 -23 20 -46 35 -22 15 -50 36 -62 47 -21 20 -53 26 -66 13 -13 -13
-89 -34 -156 -43 -36 -5 -89 -12 -118 -16 -43 -6 -56 -4 -72 11 -24 22 -26 48
-5 65 8 7 15 18 15 26 0 20 58 83 94 101 76 40 197 52 270 27z m2036 -419 c43
-8 45 -12 104 -216 24 -85 23 -445 -2 -514 -29 -81 -49 -112 -125 -192 -86
-91 -169 -155 -234 -179 -60 -23 -147 -96 -180 -151 -45 -76 -63 -138 -51
-177 9 -29 8 -39 -11 -70 -48 -77 -132 -119 -311 -156 -19 -3 -80 -37 -134
-73 -104 -71 -207 -124 -291 -151 -60 -19 -203 -37 -232 -30 -16 4 -24 -3 -39
-31 -19 -36 -32 -46 -137 -97 -27 -12 -67 -33 -90 -45 -61 -32 -82 -29 -130
17 -50 48 -73 47 -125 -5 l-33 -32 -142 -7 c-78 -4 -155 -8 -172 -8 -16 -1
-56 6 -88 15 -64 19 -69 17 -141 -35 -29 -21 -51 -28 -85 -28 -25 0 -55 -7
-65 -15 -11 -8 -37 -15 -58 -15 -38 0 -110 29 -123 50 -3 5 -17 10 -31 10 -24
0 -134 34 -164 50 -8 5 -31 1 -55 -8 -58 -24 -257 -24 -302 1 -40 21 -76 22
-108 1 -22 -15 -28 -14 -71 2 -40 15 -52 16 -98 5 -84 -21 -185 -25 -204 -8
-45 40 -77 46 -210 45 -106 -1 -135 2 -163 17 -19 10 -41 21 -49 25 -13 6 -62
86 -89 148 -6 12 -15 22 -19 22 -17 0 -126 -55 -153 -77 -8 -6 -41 -25 -74
-43 -54 -29 -68 -32 -143 -32 -55 1 -91 6 -105 15 -35 23 -107 98 -107 112 0
6 -12 30 -28 51 -30 45 -39 59 -77 132 -16 31 -25 61 -22 73 3 11 -5 42 -20
70 -26 53 -26 85 3 113 8 9 22 16 31 16 22 0 68 -53 93 -108 95 -211 169 -310
204 -275 27 27 170 41 225 22 27 -9 40 -8 83 11 29 12 78 25 109 27 54 5 60 4
88 -25 17 -17 31 -40 31 -53 0 -12 9 -37 21 -55 19 -31 25 -34 70 -34 28 0 62
-6 77 -14 15 -8 74 -22 132 -32 64 -11 116 -25 132 -37 25 -18 32 -19 127 -7
56 7 117 9 137 6 29 -6 44 -2 83 23 57 37 60 37 106 10 34 -20 46 -21 194 -17
117 4 166 9 187 21 53 29 93 37 119 25 14 -6 25 -17 25 -24 0 -19 29 -44 51
-44 10 0 47 -13 81 -29 113 -52 158 -49 210 14 19 23 47 40 90 54 86 29 120
27 155 -7 26 -27 36 -29 121 -34 92 -5 93 -5 135 26 124 93 283 114 301 40 6
-24 30 -32 41 -14 3 6 23 10 43 10 51 0 102 33 102 65 0 40 30 60 109 74 69
12 162 41 199 61 9 5 67 32 127 61 61 29 137 69 170 89 152 93 175 102 244
104 36 1 71 5 78 9 6 4 14 33 18 65 7 75 19 112 63 201 33 66 68 112 189 244
45 50 120 97 154 97 14 0 31 6 36 13 12 15 37 79 54 137 9 30 30 60 60 90 44
43 47 49 54 115 17 152 -7 302 -66 417 -12 23 -17 47 -14 59 8 23 42 40 67 33
9 -3 26 -7 38 -9z"/>
<path d="M2703 4371 c-147 -81 -204 -212 -134 -308 37 -52 117 -117 134 -110
11 4 13 23 10 79 -5 83 3 101 43 101 39 0 54 -27 54 -99 0 -68 25 -114 61
-114 29 0 34 27 15 79 -23 66 -21 107 7 125 26 18 64 11 71 -13 2 -9 10 -40
17 -69 7 -29 22 -62 32 -73 l19 -21 30 29 c59 55 78 97 78 168 0 100 -49 167
-164 225 l-59 29 -23 -24 c-29 -32 -42 -31 -54 0 -13 35 -69 34 -137 -4z"/>
</g>
</svg>
